<svg
  width="100"
  height="100"
  viewBox="0 0 100 100"
  fill="none"
  xmlns="http://www.w3.org/2000/svg"
>
  <path
    opacity="0.997"
    fill-rule="evenodd"
    clip-rule="evenodd"
    d="M67.0898 17.2852C62.7383 19.6881 58.4414 22.1619 54.1992 24.707C54.1342 24.707 54.0689 24.707 54.0039 24.707C46.9527 20.5617 39.8562 16.4602 32.7148 12.4023C36.935 9.76998 41.2318 7.23092 45.6055 4.78516C52.8432 8.85842 60.0047 13.0251 67.0898 17.2852Z"
    fill="#A35BFE"
  />
  <path
    opacity="0.997"
    fill-rule="evenodd"
    clip-rule="evenodd"
    d="M32.7148 12.4023C39.8562 16.4602 46.9527 20.5617 54.0039 24.707C53.8742 39.7475 54.0045 54.7215 54.3945 69.6289C57.8084 71.8018 61.324 73.8199 64.9414 75.6836C57.8451 82.0639 50.7486 88.4439 43.6523 94.8242C43.5396 95.0729 43.4096 95.0729 43.2617 94.8242C36.2158 80.277 29.1195 65.7586 21.9727 51.2695C25.5322 53.115 29.0479 55.0682 32.5195 57.1289C32.7148 53.0945 32.7799 49.058 32.7148 45.0195C32.7148 34.1471 32.7148 23.2748 32.7148 12.4023Z"
    fill="#9E3DFE"
  />
  <path
    opacity="0.996"
    fill-rule="evenodd"
    clip-rule="evenodd"
    d="M67.0898 17.2852C67.0898 32.2592 67.0898 47.233 67.0898 62.207C62.8845 64.6676 58.6527 67.0766 54.3945 69.4336C54.1994 54.5576 54.1341 39.6488 54.1992 24.707C58.4414 22.1619 62.7382 19.6881 67.0898 17.2852Z"
    fill="#7733E6"
  />
  <path
    fill-rule="evenodd"
    clip-rule="evenodd"
    d="M54.0038 24.707C54.0689 24.707 54.1341 24.707 54.1992 24.707C54.1341 39.6488 54.1994 54.5576 54.3945 69.4336C54.3945 69.4986 54.3945 69.5639 54.3945 69.6289C54.0044 54.7215 53.8742 39.7475 54.0038 24.707Z"
    fill="#AE39F5"
  />
  <path
    opacity="0.989"
    fill-rule="evenodd"
    clip-rule="evenodd"
    d="M32.7148 45.0195C32.7799 49.058 32.7148 53.0945 32.5195 57.1289C29.0479 55.0682 25.5322 53.115 21.9727 51.2695C25.4559 49.0389 29.0365 46.9557 32.7148 45.0195Z"
    fill="#C15BFF"
  />
  <path
    fill-rule="evenodd"
    clip-rule="evenodd"
    d="M67.0898 62.207C70.6266 64.1387 74.1422 66.1242 77.6367 68.1641C77.8785 68.2988 77.8785 68.3965 77.6367 68.457C73.3785 70.8141 69.1467 73.223 64.9414 75.6836C61.324 73.8199 57.8084 71.8018 54.3945 69.6289C54.3945 69.5639 54.3945 69.4986 54.3945 69.4336C58.6527 67.0766 62.8846 64.6676 67.0898 62.207Z"
    fill="#A35BFE"
  />
  <path
    opacity="0.99"
    fill-rule="evenodd"
    clip-rule="evenodd"
    d="M77.6367 68.457C70.702 74.9031 63.6707 81.2508 56.543 87.5C52.2672 89.9955 47.9703 92.4369 43.6523 94.8242C50.7486 88.4439 57.8451 82.0639 64.9414 75.6836C69.1467 73.223 73.3785 70.8141 77.6367 68.457Z"
    fill="#7D31DE"
  />
</svg>
